<svg xmlns="http://www.w3.org/2000/svg" viewBox="0 0 1920 1080" width="100%" height="100%">
  <defs>
    <!-- Background Gradients (Concrete stone textures) -->
    <linearGradient id="wallGrad" x1="0%" y1="0%" x2="100%" y2="100%">
      <stop offset="0%" stop-color="#2d3748" />
      <stop offset="50%" stop-color="#1a202c" />
      <stop offset="100%" stop-color="#0f1219" />
    </linearGradient>

    <!-- Side lighting to cast shadows in the scratches -->
    <linearGradient id="sideLight" x1="0%" y1="50%" x2="100%" y2="50%">
      <stop offset="0%" stop-color="#ea580c" stop-opacity="0.1" />
      <stop offset="30%" stop-color="#000" stop-opacity="0" />
      <stop offset="100%" stop-color="#000" stop-opacity="0.8" />
    </linearGradient>

    <!-- Forensic Noise Filter (Simulating concrete grains, cracks, and dirt) -->
    <filter id="noiseFilter" x="0%" y="0%" width="100%" height="100%">
      <feTurbulence type="fractalNoise" baseFrequency="0.9" numOctaves="4" result="noise" />
      <feColorMatrix type="matrix" values="1 0 0 0 0  0 1 0 0 0  0 0 1 0 0  0 0 0 0.08 0" />
      <feComposite operator="in" in2="SourceGraphic" />
    </filter>
  </defs>

  <!-- Base Concrete Wall -->
  <rect width="100%" height="100%" fill="url(#wallGrad)" />

  <!-- Concrete cracks (Subtle lines) -->
  <g stroke="#090d16" stroke-width="2" fill="none" opacity="0.6">
    <path d="M100,-50 Q200,300 150,450 T300,800 Q400,950 350,1130" />
    <path d="M1500,-50 Q1400,250 1450,500 T1300,900" />
    <path d="M500,200 L600,220 L580,270 L650,290" opacity="0.3" />
  </g>
  <g stroke="#4a5568" stroke-width="1" fill="none" opacity="0.3">
    <!-- Crack highlight edges -->
    <path d="M101,-49 Q201,301 151,451 T301,801 Q401,951 351,1131" />
  </g>

  <!-- Side Lighting Shadow Overlay -->
  <rect width="100%" height="100%" fill="url(#sideLight)" />

  <!-- Hand-Carved Tally Marks (تعداد الأيام) -->
  <!-- We simulate the carved effect using dark lines offset slightly by light highlight lines -->
  <g id="tally-marks" opacity="0.75">
    <!-- Set 1 (Four verticals + one diagonal) -->
    <g>
      <!-- Shadow (dark carved groove) -->
      <g stroke="#030508" stroke-width="5" stroke-linecap="round" fill="none">
        <line x1="400" y1="300" x2="405" y2="420" />
        <line x1="440" y1="295" x2="445" y2="415" />
        <line x1="480" y1="305" x2="482" y2="425" />
        <line x1="520" y1="290" x2="525" y2="410" />
        <line x1="380" y1="390" x2="540" y2="310" />
      </g>
      <!-- Highlight (light catching edge) -->
      <g stroke="#718096" stroke-width="2" stroke-linecap="round" fill="none">
        <line x1="402" y1="301" x2="407" y2="421" />
        <line x1="442" y1="296" x2="447" y2="416" />
        <line x1="482" y1="306" x2="484" y2="426" />
        <line x1="522" y1="291" x2="527" y2="411" />
        <line x1="381" y1="391" x2="541" y2="311" />
      </g>
    </g>

    <!-- Set 2 -->
    <g transform="translate(200, 10)">
      <g stroke="#030508" stroke-width="5" stroke-linecap="round" fill="none">
        <line x1="400" y1="300" x2="398" y2="420" />
        <line x1="440" y1="305" x2="438" y2="425" />
        <line x1="480" y1="295" x2="478" y2="415" />
        <line x1="520" y1="300" x2="518" y2="420" />
        <line x1="375" y1="400" x2="540" y2="315" />
      </g>
      <g stroke="#718096" stroke-width="2" stroke-linecap="round" fill="none">
        <line x1="402" y1="301" x2="400" y2="421" />
        <line x1="442" y1="306" x2="440" y2="426" />
        <line x1="482" y1="296" x2="480" y2="416" />
        <line x1="522" y1="301" x2="520" y2="421" />
        <line x1="376" y1="401" x2="541" y2="316" />
      </g>
    </g>
    
    <!-- Set 3 (Incomplete tally - only 3 lines) -->
    <g transform="translate(400, -5)">
      <g stroke="#030508" stroke-width="5" stroke-linecap="round" fill="none">
        <line x1="400" y1="300" x2="402" y2="420" />
        <line x1="440" y1="295" x2="443" y2="415" />
        <line x1="480" y1="305" x2="484" y2="425" />
      </g>
      <g stroke="#718096" stroke-width="2" stroke-linecap="round" fill="none">
        <line x1="402" y1="301" x2="404" y2="421" />
        <line x1="442" y1="296" x2="445" y2="416" />
        <line x1="482" y1="306" x2="486" y2="426" />
      </g>
    </g>
  </g>

  <!-- Scratching of a name in Arabic: "يا رب" or "حرية" -->
  <g id="arabic-scratch" opacity="0.6">
    <!-- "حرية" carved shadow -->
    <path d="M1200,350 Q1180,310 1140,320 T1100,350 T1070,330 M1130,325 L1130,300 M1115,325 L1115,300 M1050,340 Q1020,380 970,370 T940,330 M970,330 L968,310 M1020,400 Q1050,420 1090,410 T1130,380" stroke="#030508" stroke-width="5" stroke-linecap="round" fill="none" />
    <!-- "حرية" carved highlight -->
    <path d="M1201,351 Q1181,311 1141,321 T1101,351 T1071,331 M1131,326 L1131,301 M1116,326 L1116,301 M1051,341 Q1021,381 971,371 T941,331 M971,331 L969,311 M1021,401 Q1051,421 1091,411 T1131,381" stroke="#718096" stroke-width="2" stroke-linecap="round" fill="none" />
  </g>

  <!-- Heavy Forensic Dirt, Concrete grain Filter Overlay -->
  <rect width="100%" height="100%" fill="#fff" opacity="0.06" filter="url(#noiseFilter)" />

  <!-- Vignette -->
  <rect width="100%" height="100%" fill="none" stroke="#000" stroke-width="120" opacity="0.9" />

  <!-- Integrated Signature (Lightly carved in the lower corner) -->
  <text x="1870" y="1030" text-anchor="end" font-family="'Amiri', serif" font-style="italic" font-size="20" fill="#cbd5e1" opacity="0.25">@𝓚𝓱𝓪𝓵𝓭𝓸𝓾𝓷𝓐𝓐𝓴𝓻𝓪𝓶𝓪𝓱</text>
</svg>
